<?xml version="1.0" standalone="no"?>
<!DOCTYPE svg PUBLIC "-//W3C//DTD SVG 1.1//EN" "http://www.w3.org/Graphics/SVG/1.1/DTD/svg11.dtd" >
<!--
2013-9-30: Created.
-->
<svg>
<metadata>
Created by iconfont
</metadata>
<defs>

<font id="iconfont" horiz-adv-x="1024" >
  <font-face
    font-family="iconfont"
    font-weight="500"
    font-stretch="normal"
    units-per-em="1024"
    ascent="896"
    descent="-128"
  />
    <missing-glyph />
    
    <glyph glyph-name="bohui" unicode="&#58904;" d="M704.00203283 49.447296319999964H431.17032485c-15.28720245 0-27.6552211 12.37060773-27.65522108 27.65651563s12.36931318 27.6552211 27.65522108 27.6552211h272.83170798c15.28849698 0 27.65651564-12.36931318 27.65651563-27.6552211s-12.36801865-27.65651564-27.65651563-27.65651563zM594.83879854 49.447296319999964H228.01584482c-76.97195109 0-124.61354857 83.72555725-124.61354855 161.29170141V763.8615432c0 73.24497541 45.42664249 115.26827678 124.61354855 115.26827677h545.66859409c89.07200032 0 148.91979915-46.31857936 148.91979915-115.26827677v-437.85167962h-55.31303127v437.85167962c0 58.28270206-84.04660275 59.95654005-93.60806242 59.95654003H228.01584482c-61.06337027 0-69.30181183-30.30255186-69.30181184-59.95654003V210.73899773000005c0-50.01836974 29.62809742-105.97867013 69.30181184-105.97867015h366.82295372v-55.31303126zM867.29250133 302.20071570000005V575.03242366c0 15.28720245 12.36931318 27.6552211 27.6552211 27.65522111 15.28849698 0 27.65651564-12.36931318 27.65651563-27.65522111v-272.83170796c0-15.28849698-12.36931318-27.65651564-27.65651563-27.65651565-15.28590791 0-27.6552211 12.36931318-27.6552211 27.65651565zM397.40876674 428.2602635a27.57107611 27.57107611 0 0 0-19.55270606 8.10251505l-97.82307903 97.76741389c-5.18462578 5.18592032-8.1012205 12.20879043-8.1012205 19.55400059s2.91659472 14.36808027 8.1012205 19.55270605l97.82307903 97.76870842c10.80292187 10.80292187 28.30378477 10.80292187 39.10670665 0s10.80292187-28.30378477 0-39.10670665l-78.2405986-78.21470782 78.2405986-78.21470784c10.80292187-10.80292187 10.80292187-28.30507931 0-39.10800119a27.56848703 27.56848703 0 0 0-19.55400059-8.1012205zM615.79607861 249.46899373999997H449.85957389c-15.28461337 0-27.6552211 12.36931318-27.65522109 27.6552211s12.37060773 27.6552211 27.65522109 27.65522109H615.79607861c45.75157159 0 82.96825236 28.95234845 82.96825238 64.54956184v92.15041233c0 35.59721339-37.21668077 64.54956183-82.96825238 64.54956183H339.23480589c-15.28720245 0-27.6552211 12.36931318-27.65522109 27.65651563s12.36931318 27.6552211 27.65522109 27.6552211H615.79607861c76.27160589 0 138.2799891-53.77253072 138.2799891-119.86129856v-92.15041233c0-66.0874733-62.0083832-119.86000403-138.2799891-119.86000403z"  horiz-adv-x="1024" />

    
    <glyph glyph-name="pinglun" unicode="&#59331;" d="M481.9-62c-0.8 0-1.5 0-2.3 0.1-6 0.7-11.4 3.9-14.9 8.8l-105 149.5H149.1c-45.8 0-83.1 37.6-83.1 83.9V746.1c0 46.2 37.3 83.9 83.1 83.9h725.8c45.8 0 83.1-37.6 83.1-83.9v-565.8c0-46.2-37.3-83.9-83.1-83.9H664l-168-153c-3.8-3.5-8.9-5.4-14.1-5.4zM149.1 788c-22.7 0-41.1-18.8-41.1-41.9v-565.8c0-23.1 18.4-41.9 41.1-41.9h221.5c6.8 0 13.3-3.3 17.2-8.9l97.6-138.9L641.8 133c3.9 3.5 8.9 5.5 14.1 5.5h219c22.7 0 41.1 18.8 41.1 41.9V746.1c0 23.1-18.4 41.9-41.1 41.9H149.1zM295.9 469m-41 0a41 41 0 1 1 82 0 41 41 0 1 1-82 0ZM512 469m-41 0a41 41 0 1 1 82 0 41 41 0 1 1-82 0ZM728.1 469m-41 0a41 41 0 1 1 82 0 41 41 0 1 1-82 0Z"  horiz-adv-x="1024" />

    
    <glyph glyph-name="hua" unicode="&#58898;" d="M419.391301 1.3111109999999826c-8.523117 0-16.998139 3.40761-23.139 10.144034-80.554664 88.508823-210.849172 89.36533-213.539444 89.36533l-0.191358 0c-16.998139 0-30.875195 13.456477-30.996968 30.141484-0.13303 16.768919 13.5629 30.438243 30.624485 30.624485 6.438643 0.334621 160.338778 0.181125 260.311701-109.659539 11.404748-12.510942 10.288321-31.714306-2.472308-42.901089C434.103374 3.8632370000000265 426.728406 1.3111109999999826 419.391301 1.3111109999999826L419.391301 1.3111109999999826zM627.08255 1.3704629999999725c-7.523347 0-15.083533 2.673899-21.054525 8.113795-12.552897 11.393491-13.32447 30.630624-1.680269 42.932812C707.881784 162.10219099999995 858.655719 161.980417 864.600105 161.73584700000004c17.131169-0.181125 30.848589-13.913894 30.662347-30.688953-0.186242-16.678868-13.998829-30.077016-30.970362-30.077016l-0.24457 0 0 0c-2.573615 0-130.235157-0.823761-214.261898-89.848331C643.713322 4.623553000000015 635.381563 1.3704629999999725 627.08255 1.3704629999999725L627.08255 1.3704629999999725zM572.484048 155.90300200000001l-98.148367 0c-3.1262 0-6.16235 0.457418-9.049097 1.339508-104.773252 13.1853-193.814194 72.829725-251.203252 168.468946-66.61928 111.083981-81.890079 255.016091-37.941124 358.167403 4.736884 11.090593 15.700587 18.412348 27.972075 18.656919l9.320273 0.090051c58.995649 0 114.098641-10.937097 164.241668-32.570813 36.234249 64.987107 77.609589 114.301256 123.232672 146.872069 2.413979 2.068102 5.167696 3.801583 8.235568 5.077645l0 0c9.56996 4.067642 20.693298 3.189645 29.449729-2.402723 1.520633-0.973164 2.945075-2.068102 4.247744-3.28072 45.740764-32.93204 85.97307-81.517595 122.398678-147.876955 51.131541 22.665209 107.500363 34.149774 168.048367 34.149774l9.474792-0.090051c12.271488-0.24457 23.234167-7.560186 27.966958-18.656919 43.954071-103.177917 28.710902-247.110027-37.96773-358.188892-57.390082-95.586009-146.398278-155.267273-251.144924-168.474063C578.67812 156.387026 575.641971 155.90300200000001 572.484048 155.90300200000001L572.484048 155.90300200000001zM479.844138 216.66896999999994l87.126336 0c0.648776 0.127913 1.324158 0.212848 2.009773 0.302899 111.9937 12.218276 176.225607 82.675978 210.391754 139.582035 52.30732 87.237877 68.166519 201.236234 41.157375 285.156552-56.368822-1.796926-108.027365-15.349593-153.708777-40.386826-7.465019-4.067642-16.296151-4.923126-24.372084-2.488681-8.118911 2.488681-14.84408 8.172123-18.587334 15.673981-31.401174 63.015196-65.072041 109.383246-102.422717 140.980895-37.377282-31.534204-71.788-78.236875-102.513792-139.183969-3.743254-7.411807-10.373255-13.005198-18.422581-15.492856-8.055466-2.520403-16.726963-1.675152-24.159236 2.275833-44.719504 23.851221-95.170546 36.824697-150.024875 38.5899-27.004027-83.925435-11.148921-197.918675 41.157375-285.124829 34.166147-56.906058 98.361215-127.338177 210.328309-139.582035C478.482117 216.88181799999995 479.162616 216.79688399999998 479.844138 216.66896999999994L479.844138 216.66896999999994zM523.176039-25.15567999999996c-17.098423 0-30.970362 13.58439-30.970362 30.386054L492.205677 186.28905599999996c0 16.801664 13.871939 30.379914 30.970362 30.379914 17.093307 0 30.970362-13.579273 30.970362-30.379914l0-181.058682C554.119795-11.571290999999974 540.269345-25.15567999999996 523.176039-25.15567999999996L523.176039-25.15567999999996zM523.176039-25.15567999999996"  horiz-adv-x="1024" />

    
    <glyph glyph-name="hua1" unicode="&#58899;" d="M412.032-6.1440000000000055c-8.192 0-16.384 3.328-22.272 9.984-77.44 86.656-202.496 87.552-205.184 87.552h-0.128c-16.384 0-29.696 13.184-29.824 29.568-0.128 16.384 13.056 29.824 29.44 29.952 6.144 0.384 153.984 0.128 250.112-107.392 11.008-12.288 9.856-31.104-2.432-41.984-5.504-5.12-12.672-7.68-19.712-7.68z m199.552 0.128c-7.296 0-14.464 2.56-20.224 7.936-12.032 11.136-12.8 29.952-1.664 41.984C689.152 151.29600000000005 833.92 151.168 839.68 150.91200000000003c16.512-0.128 29.696-13.568 29.44-30.08-0.128-16.384-13.44-29.44-29.696-29.44h-0.256c-2.432 0-125.056-0.768-205.824-87.936-5.76-6.272-13.824-9.472-21.76-9.472z m-52.48 151.296h-94.336c-2.944 0-5.888 0.384-8.704 1.28-100.608 12.928-186.24 71.296-241.28 164.992-64 108.8-78.72 249.728-36.48 350.72 4.608 10.88 15.104 18.048 26.88 18.304l8.96 0.128c56.704 0 109.568-10.752 157.824-31.872 34.816 63.616 74.496 111.872 118.4 143.872 2.304 2.048 4.992 3.712 7.936 4.992 9.216 3.968 19.84 3.072 28.288-2.304 1.408-0.896 2.816-2.048 4.096-3.2 43.904-32.256 82.56-79.872 117.632-144.768 49.152 22.144 103.296 33.408 161.408 33.408l9.088-0.128c11.776-0.256 22.272-7.424 26.88-18.304 42.24-100.992 27.52-241.92-36.48-350.72-55.168-93.568-140.672-152.064-241.28-164.992-2.816-0.896-5.76-1.408-8.832-1.408zM511.744-32c-16.384 0-29.696 13.312-29.696 29.696V175.10400000000004c0 16.512 13.312 29.696 29.696 29.696s29.696-13.312 29.696-29.696v-177.28c0-16.512-13.312-29.824-29.696-29.824z m0 0"  horiz-adv-x="1024" />

    
    <glyph glyph-name="xiangshang" unicode="&#58930;" d="M1032.192 158.72c0-8.192-3.072-15.36-9.216-21.504-12.288-12.288-31.744-12.288-43.008 0L551.936 565.248c-9.216 9.216-21.504 14.336-34.816 14.336-13.312 0-25.6-5.12-34.816-14.336l-430.08-429.056c-12.288-12.288-31.744-12.288-43.008 0-12.288 12.288-12.288 31.744 0 43.008l429.056 429.056c43.008 43.008 113.664 43.008 156.672 0l428.032-428.032C1029.12 174.08 1032.192 166.912 1032.192 158.72z"  horiz-adv-x="1033" />

    
    <glyph glyph-name="-s-shouye" unicode="&#58892;" d="M732.389161-92.140075h-160.174331c-19.125293 0-33.469263 14.34397-33.469264 33.469263V237.771235h-105.189113v-296.442047c0-19.125293-14.34397-33.469263-33.469263-33.469263H239.912858c-57.37588 0-102.798452 45.422572-102.798451 102.798452V311.881746h-19.125294c-45.422572 0-81.282497 35.859925-81.282496 78.891835 0 21.515955 7.171985 40.641248 21.515955 54.985219L380.961896 816.311358c54.985218 57.37588 145.830362 62.157203 207.987565 9.562646 2.390662 0 2.390662-2.390662 4.781324-4.781323s2.390662-4.781323 7.171985-7.171985L921.251433 448.149461c31.078602-31.078602 31.078602-81.282497 0-112.361098-14.34397-14.34397-35.859925-23.906617-57.37588-23.906617h-28.68794v-301.223369c0-57.37588-47.813233-102.798452-102.798452-102.798452zM569.824168-128c-16.734632 0-35.859925 7.171985-47.813233 19.125293s-19.125293 26.297278-21.515955 43.03191l-2.390662 7.171985 2.390662 4.781324V201.91131H467.025716v-260.582122c0-38.250587-31.078602-69.329188-69.329188-69.329188H239.912858c-76.501173 0-138.658377 62.157203-138.658376 138.658377V278.412483c-23.906617 2.390662-47.813233 14.34397-64.547865 33.469263-23.906617 21.515955-35.859925 50.203895-35.859925 81.282497 0 31.078602 11.953308 59.766542 33.469263 81.282496L354.664618 840.217974c69.329188 74.110512 181.690287 78.891835 258.19146 14.34397l7.171985-7.171985h2.390661l327.520649-372.94322c43.03191-43.03191 43.03191-117.142422-2.390662-162.564993-19.125293-19.125293-47.813233-31.078602-76.501173-33.469263v-265.363445c0-76.501173-62.157203-138.658377-138.658377-138.658376h-162.564993v-2.390662zM395.305866-58.670812z m0 332.301972h176.908964v-329.91131H729.998499c35.859925 0 66.938527 31.078602 66.938527 66.938527V347.741671h64.547865c11.953308 0 23.906617 4.781323 31.078602 11.953309 16.734632 16.734632 16.734632 45.422572 0 62.157203L574.605491 790.014079c-4.781323 2.390662-7.171985 7.171985-9.562646 11.953309-45.422572 38.250587-114.75176 35.859925-157.78367-9.562647L86.910512 424.242845c-9.562647-9.562647-14.34397-19.125293-14.34397-31.078602s4.781323-23.906617 11.953308-33.469263c7.171985-7.171985 19.125293-11.953308 31.078602-11.953309h54.985218v-337.083294c0-35.859925 31.078602-66.938527 66.938526-66.938527H395.305866V273.63116zM270.99146 515.087988l153.002346 153.002346c14.34397 14.34397 38.250587 11.953308 50.203895-2.390661s11.953308-35.859925 0-47.813234l-153.002346-153.002346c-14.34397-14.34397-38.250587-11.953308-50.203895 2.390661-14.34397 11.953308-14.34397 33.469263 0 47.813234z"  horiz-adv-x="1050" />

    
    <glyph glyph-name="-s-shujudanaoxuanzhong" unicode="&#58895;" d="M153.6 849.92h716.8c84.48 0 153.6-69.12 153.6-153.6v-409.6c0-84.48-69.12-153.6-153.6-153.6H153.6c-84.48 0-153.6 69.12-153.6 153.6v409.6c0 87.04 69.12 153.6 153.6 153.6zM514.56 337.92l-179.2 153.6-128-128c-15.36-15.36-38.4-15.36-53.76 0-15.36 15.36-15.36 38.4 0 53.76l179.2 179.2 179.2-153.6 256 256c15.36 15.36 38.4 15.36 53.76 0 15.36-15.36 15.36-38.4 0-53.76l-307.2-307.2zM793.6-7.68H230.4c-20.48 0-38.4 17.92-38.4 38.4s17.92 38.4 38.4 38.4h563.2c20.48 0 38.4-17.92 38.4-38.4s-17.92-38.4-38.4-38.4z"  horiz-adv-x="1024" />

    
    <glyph glyph-name="-s-shujudanao" unicode="&#58890;" d="M192 832h716.8c84.48 0 153.6-69.12 153.6-153.6v-409.6c0-84.48-69.12-153.6-153.6-153.6H192c-84.48 0-153.6 69.12-153.6 153.6v409.6c0 84.48 69.12 153.6 153.6 153.6zM908.8 76.79999999999995H192c-104.96 0-192 87.04-192 192v409.6C0 783.36 87.04 870.4 192 870.4h716.8c104.96 0 192-87.04 192-192v-409.6c0-104.96-87.04-192-192-192zM192 793.6C128 793.6 76.8 742.4 76.8 678.4v-409.6C76.8 204.79999999999995 128 153.60000000000002 192 153.60000000000002h716.8c64 0 115.2 51.2 115.2 115.2v409.6C1024 742.4 972.8 793.6 908.8 793.6H192zM552.96 320l-179.2 153.6-128-128c-15.36-15.36-38.4-15.36-53.76 0-15.36 15.36-15.36 38.4 0 53.76l179.2 179.2 179.2-153.6 256 256c15.36 15.36 38.4 15.36 53.76 0 15.36-15.36 15.36-38.4 0-53.76l-307.2-307.2zM832-25.600000000000023H268.8c-20.48 0-38.4 17.92-38.4 38.4S248.32 51.200000000000045 268.8 51.200000000000045h563.2c20.48 0 38.4-17.92 38.4-38.4S852.48-25.600000000000023 832-25.600000000000023z"  horiz-adv-x="1100" />

    
    <glyph glyph-name="-s-xiaoxi" unicode="&#58891;" d="M192 857.6h716.8c84.48 0 153.6-69.12 153.6-153.6v-537.6c0-84.48-69.12-153.6-153.6-153.6H309.76c-151.04 0-271.36-102.4-271.36-102.4v793.6c0 84.48 69.12 153.6 153.6 153.6zM38.4-128c-5.12 0-10.24 0-15.36 2.56-12.8 5.12-23.04 20.48-23.04 35.84v793.6C0 808.96 87.04 896 192 896h716.8c104.96 0 192-87.04 192-192v-537.6c0-104.96-87.04-192-192-192H309.76C174.08-25.600000000000023 64-117.75999999999999 64-117.75999999999999c-7.68-7.68-17.92-10.24-25.6-10.24zM192 819.2C128 819.2 76.8 768 76.8 704v-721.92c53.76 30.72 138.24 69.12 232.96 69.12H908.8c64 0 115.2 51.2 115.2 115.2v537.6C1024 768 972.8 819.2 908.8 819.2H192zM750.08 337.91999999999996c-99.84-99.84-261.12-99.84-360.96 0M570.88 225.27999999999997c-74.24 0-151.04 28.16-207.36 87.04-15.36 15.36-15.36 38.4 0 53.76 15.36 15.36 38.4 15.36 53.76 2.56l2.56-2.56c84.48-84.48 222.72-84.48 307.2 0 15.36 15.36 38.4 15.36 53.76 0 15.36-15.36 15.36-38.4 0-53.76-61.44-58.88-135.68-87.04-209.92-87.04z"  horiz-adv-x="1100" />

    
    <glyph glyph-name="-s-jiaoxue" unicode="&#58893;" d="M132.613953 860.27907h700.130233C875.609302 860.27907 911.330233 824.55814 911.330233 781.693023v-793.004651c0-42.865116-35.72093-78.586047-78.586047-78.586046H132.613953C89.748837-92.27907000000005 54.027907-56.55813999999998 54.027907-13.69302300000004V781.693023C54.027907 824.55814 89.748837 860.27907 132.613953 860.27907zM911.330233 243.49767399999996v-257.190697c0-42.865116-35.72093-78.586047-78.586047-78.586047H582.697674M520.781395 860.27907h195.274419v-376.260465l-97.637209 59.534883-97.63721-59.534883V860.27907zM582.697674-128H132.613953c-64.297674 0-114.306977 52.390698-114.306976 114.306977V781.693023C18.306977 843.609302 68.316279 896 130.232558 896h702.511628c64.297674 0 114.306977-52.390698 114.306977-114.306977v-793.004651c0-61.916279-50.009302-114.306977-114.306977-114.306977H582.697674zM132.613953 824.55814c-23.813953 0-42.865116-19.051163-42.865116-42.865117v-793.004651c0-23.813953 19.051163-42.865116 42.865116-42.865116h700.130233c23.813953 0 42.865116 19.051163 42.865116 42.865116V781.693023c0 23.813953-19.051163 42.865116-42.865116 42.865117h-80.967442v-404.83721l-133.358139 80.967442-133.35814-80.967442v404.83721H132.613953z m485.804652-240.520931l61.916279-38.102325V824.55814h-123.832558v-278.623256l61.916279 38.102325zM520.781395 860.27907h195.274419v-376.260465l-97.637209 59.534883-97.63721-59.534883V860.27907zM485.060465 419.72093v476.27907h266.716279v-476.27907l-133.358139 80.967442-133.35814-80.967442z m133.35814 164.316279l61.916279-38.102325V824.55814h-123.832558v-278.623256l61.916279 38.102325zM232.632558 622.139535c19.051163 0 35.72093-16.669767 35.72093-35.72093v-404.83721c0-19.051163-16.669767-35.72093-35.72093-35.72093S196.911628 162.53023299999995 196.911628 181.58139500000004v404.83721c0 19.051163 16.669767 35.72093 35.72093 35.72093z"  horiz-adv-x="1024" />

    
    <glyph glyph-name="-s-wode" unicode="&#58894;" d="M883.2 596.48v-422.4L512-38.39999999999998 140.8 174.08000000000004V596.48L512 806.4l371.2-209.92zM512-76.79999999999995c-7.68 0-12.8 2.56-17.92 5.12L122.88 140.79999999999995c-12.8 5.12-20.48 17.92-20.48 33.28V596.48c0 12.8 7.68 25.6 20.48 33.28l371.2 212.48c12.8 7.68 25.6 7.68 38.4 0l371.2-212.48c12.8-7.68 20.48-20.48 20.48-33.28v-422.4c0-12.8-7.68-25.6-20.48-33.28l-371.2-212.48c-7.68-2.56-12.8-5.12-20.48-5.12zM179.2 194.55999999999995l332.8-189.44 332.8 189.44V573.44L512 762.88 179.2 573.44v-378.88zM645.12 476.16l117.76-117.76c15.36-15.36 15.36-38.4 0-53.76-15.36-15.36-38.4-15.36-53.76 0l-117.76 117.76 53.76 53.76z m-51.2-46.08l117.76 117.76c15.36 15.36 40.96 12.8 53.76-2.56s12.8-38.4 0-51.2l-117.76-117.76-53.76 53.76zM371.2 471.04L258.56 358.4c-15.36-15.36-15.36-38.4 0-51.2s38.4-15.36 51.2 0l112.64 112.64-51.2 51.2z m48.64-43.52L307.2 540.1600000000001c-12.8 15.36-35.84 15.36-51.2 0-15.36-15.36-15.36-38.4 0-51.2l112.64-112.64 51.2 51.2z"  horiz-adv-x="1024" />

    
    <glyph glyph-name="-s-xiaoxixuanzhong" unicode="&#58886;" d="M166.054054 896h774.918919a166.054054 166.054054 0 0 0 166.054054-166.054054v-581.189189a166.054054 166.054054 0 0 0-166.054054-166.054054H293.638919C130.075676-17.297297 0-128 0-128V729.945946a166.054054 166.054054 0 0 0 166.054054 166.054054zM574.27027 211.303784a316.886486 316.886486 0 0 0-224.726486 92.99027 41.513514 41.513514 0 0 0 55.351351 60.60973l1.937297-1.937298a235.243243 235.243243 0 0 1 332.108109 0 41.513514 41.513514 0 0 0 58.672432-58.672432 317.163243 317.163243 0 0 0-223.342703-92.99027z"  horiz-adv-x="1107" />

    
    <glyph glyph-name="-s-wodexuanzhong" unicode="&#58889;" d="M883.2 596.48v-422.4L512-38.39999999999998 140.8 174.08000000000004V596.48L512 806.4l371.2-209.92zM512-76.79999999999995c-7.68 0-12.8 2.56-17.92 5.12L122.88 140.79999999999995c-12.8 5.12-20.48 17.92-20.48 33.28V596.48c0 12.8 7.68 25.6 20.48 33.28l371.2 212.48c12.8 7.68 25.6 7.68 38.4 0l371.2-212.48c12.8-7.68 20.48-20.48 20.48-33.28v-422.4c0-12.8-7.68-25.6-20.48-33.28l-371.2-212.48c-7.68-2.56-12.8-5.12-20.48-5.12zM179.2 194.55999999999995l332.8-189.44 332.8 189.44V573.44L512 762.88 179.2 573.44v-378.88zM645.12 476.16l117.76-117.76c15.36-15.36 15.36-38.4 0-53.76-15.36-15.36-38.4-15.36-53.76 0l-117.76 117.76 53.76 53.76z m-51.2-46.08l117.76 117.76c15.36 15.36 40.96 12.8 53.76-2.56s12.8-38.4 0-51.2l-117.76-117.76-53.76 53.76zM371.2 471.04L258.56 358.4c-15.36-15.36-15.36-38.4 0-51.2s38.4-15.36 51.2 0l112.64 112.64-51.2 51.2z m48.64-43.52L307.2 540.1600000000001c-12.8 15.36-35.84 15.36-51.2 0-15.36-15.36-15.36-38.4 0-51.2l112.64-112.64 51.2 51.2z"  horiz-adv-x="1024" />

    
    <glyph glyph-name="cs-rl-1" unicode="&#58933;" d="M0.1 56.89999999999998c0-70.6 56.9-128 126.7-128h770.5c69.9 0 126.7 57.4 126.7 128V516.7H0.1v-459.8z m750.3 316.9H872v-51.2H750.4v51.2z m0-171.5H872v-51.2H750.4v51.2zM551 373.79999999999995h121.6v-51.2H551v51.2z m0-171.5h121.6v-51.2H551v51.2zM351.6 373.79999999999995h121.6v-51.2H351.6v51.2z m0-171.5h121.6v-51.2H351.6v51.2zM152.2 373.79999999999995h121.6v-51.2H152.2v51.2z m0-171.5h121.6v-51.2H152.2v51.2zM897.4 767.5H126.8C56.9 767.5 0.1 710.1 0.1 639.5v-71.6h1024v71.6c0 70.6-56.8 128-126.7 128zM288.5 838.9h50.7V688h-50.7zM687.1 838.9h50.7V688h-50.7z"  horiz-adv-x="1024" />

    
    <glyph glyph-name="xiangxia" unicode="&#58981;" d="M793.2 576 832 534.6 512 192 192 534.6 230.6 576 512 275Z"  horiz-adv-x="1024" />

    
    <glyph glyph-name="-s-gongzuotaixuanzhong" unicode="&#58884;" d="M128 716.8h768v-614.4H128zM819.968 54.01599999999996H203.264a123.9552 123.9552 0 0 0-123.904 123.648V758.2719999999999h864.768v-579.84a124.3392 124.3392 0 0 0-124.16-124.416zM150.272 687.36v-508.928a52.7616 52.7616 0 0 1 52.992-52.992H819.2a52.992 52.992 0 0 1 53.248 52.992V687.36H150.272z m837.376 0H35.84A35.1488 35.1488 0 0 0 0 722.432a35.84 35.84 0 0 0 35.84 35.84h952.32a35.456 35.456 0 1 0-0.512-70.912z m-475.904 0a35.84 35.84 0 0 0-35.84 35.84V834.816a35.84 35.84 0 0 0 71.68 0v-112.384a35.3024 35.3024 0 0 0-35.84-35.072zM244.224-102.39999999999998a35.4816 35.4816 0 0 0-24.832 60.672l151.04 150.528a35.6608 35.6608 0 0 0 50.432-50.432l-151.04-150.528a40.6528 40.6528 0 0 0-25.6-10.24z m548.864 0a34.8672 34.8672 0 0 0-24.832 10.24l-151.04 150.528a35.3024 35.3024 0 0 0-0.256 50.176l0.256 0.256a35.3792 35.3792 0 0 0 50.432 0l151.04-150.528a35.3792 35.3792 0 0 0 0-50.432 40.6528 40.6528 0 0 0-25.6-10.24zM255.232 252.928a36.352 36.352 0 0 0-26.88 12.288 34.6112 34.6112 0 0 0 3.84 49.664l137.472 119.296a35.4048 35.4048 0 0 0 42.24 3.072l150.272-94.976 172.8 168.96a35.6608 35.6608 0 0 0 49.92-50.944l-193.28-188.16a35.2256 35.2256 0 0 0-43.52-4.608l-151.552 95.744-118.272-101.888a33.8176 33.8176 0 0 0-23.04-8.448z"  horiz-adv-x="1024" />

    
    <glyph glyph-name="-s-jiaoxuexuanzhong" unicode="&#58881;" d="M134.912 896h753.92A84.9664 84.9664 0 0 0 972.8 810.752v-853.504A84.9664 84.9664 0 0 0 888.832-128H134.912A84.9152 84.9152 0 0 0 51.2-42.75199999999995V810.752A84.9152 84.9152 0 0 0 134.912 896zM972.8 232.44799999999998v-275.2A84.9664 84.9664 0 0 0 888.832-128H618.752M553.984 896h209.408v-405.248l-104.704 64-104.704-64V896zM553.984 896h209.408v-405.248l-104.704 64-104.704-64V896zM204.8 640m38.4 0l0 0q38.4 0 38.4-38.4l0-435.2q0-38.4-38.4-38.4l0 0q-38.4 0-38.4 38.4l0 435.2q0 38.4 38.4 38.4Z"  horiz-adv-x="1024" />

    
    <glyph glyph-name="-s-shouyexuanzhong" unicode="&#58883;" d="M795.328014-127.99641599999995h-197.614511a36.067208 36.067208 0 0 0-36.604761 35.580851 2.175807 2.175807 0 0 0 0 1.279887V225.50829899999997H447.966756v-316.643977A36.425576 36.425576 0 0 0 412.385904-127.99641599999995H216.563235a110.403029 110.403029 0 0 0-109.814282 110.326236V305.37323000000004h-20.734165A85.829204 85.829204 0 0 0 0.0064 391.893573a82.783074 82.783074 0 0 0 23.805893 59.130767L395.235422 845.741408a160.241819 160.241819 0 0 0 222.188337 10.495071 30.947661 30.947661 0 0 0 4.095637-4.095637 15.358641 15.358641 0 0 1 6.399434-6.399434l371.423129-394.717068a85.624422 85.624422 0 0 0-62.202495-145.65111h-31.741191v-323.04341a110.454225 110.454225 0 0 0-110.070259-110.326236zM275.438024 521.674088l162.801592 162.801592a38.396602 38.396602 0 0 0 54.267198-54.267197l-162.801592-162.801593a38.396602 38.396602 0 0 0-54.267198 54.267198z"  horiz-adv-x="1024" />

    
    <glyph glyph-name="-s-gongzuotai" unicode="&#58885;" d="M128 716.8h768v-614.4H128zM819.968 54.01599999999996H203.264a123.9552 123.9552 0 0 0-123.904 123.648V758.2719999999999h864.768v-579.84a124.3392 124.3392 0 0 0-124.16-124.416zM150.272 687.36v-508.928a52.7616 52.7616 0 0 1 52.992-52.992H819.2a52.992 52.992 0 0 1 53.248 52.992V687.36H150.272z m837.376 0H35.84A35.1488 35.1488 0 0 0 0 722.432a35.84 35.84 0 0 0 35.84 35.84h952.32a35.456 35.456 0 1 0-0.512-70.912z m-475.904 0a35.84 35.84 0 0 0-35.84 35.84V834.816a35.84 35.84 0 0 0 71.68 0v-112.384a35.3024 35.3024 0 0 0-35.84-35.072zM255.232 252.928a36.352 36.352 0 0 0-26.88 12.288 34.6112 34.6112 0 0 0 3.84 49.664l137.472 119.296a35.4048 35.4048 0 0 0 42.24 3.072l150.272-94.976 172.8 168.96a35.6608 35.6608 0 0 0 49.92-50.944l-193.28-188.16a35.2256 35.2256 0 0 0-43.52-4.608l-151.552 95.744-118.272-101.888a33.8176 33.8176 0 0 0-23.04-8.448zM244.224-102.39999999999998a35.4816 35.4816 0 0 0-24.832 60.672l151.04 150.528a35.6608 35.6608 0 0 0 50.432-50.432l-151.04-150.528a40.6528 40.6528 0 0 0-25.6-10.24z m548.864 0a34.8672 34.8672 0 0 0-24.832 10.24l-151.04 150.528a35.3024 35.3024 0 0 0-0.256 50.176l0.256 0.256a35.3792 35.3792 0 0 0 50.432 0l151.04-150.528a35.3792 35.3792 0 0 0 0-50.432 40.6528 40.6528 0 0 0-25.6-10.24z"  horiz-adv-x="1024" />

    
    <glyph glyph-name="guanbi" unicode="&#59250;" d="M541.7 377.9l254.7 254.7c9.4 9.4 9.4 24.6 0 33.9-9.4 9.4-24.6 9.4-33.9 0L507.7 411.8 253 666.5c-9.4 9.4-24.6 9.4-33.9 0-9.4-9.4-9.4-24.6 0-33.9l254.7-254.7L219 123.1c-9.4-9.4-9.4-24.6 0-33.9 9.4-9.4 24.6-9.4 33.9 0l254.7 254.7 254.7-254.7c9.4-9.4 24.6-9.4 33.9 0 9.4 9.4 9.4 24.6 0 33.9L541.7 377.9z m0 0"  horiz-adv-x="1024" />

    
    <glyph glyph-name="liebiao" unicode="&#58880;" d="M877.9348195555555-110.16449896296285h-732.0613925925926c-54.612119703703705 0-99.04188681481483 44.42855348148148-99.04188681481483 99.03945955555555V773.1042228148146c0 54.61090607407407 44.42855348148148 99.03945955555555 99.04067318518518 99.03945955555555h732.0626062222221c54.61333333333334 0 99.04067318518518-44.42855348148148 99.04067318518518-99.03945955555555v-784.229262222222c0-54.61090607407407-44.42855348148148-99.03945955555555-99.04067318518518-99.03945955555555z m-732.0613925925926 920.2116077037036c-20.371986962962964 0-36.945313185185185-16.57332622222222-36.945313185185185-36.94288592592592v-784.229262222222c0-20.369559703703704 16.57332622222222-36.94288592592592 36.94409955555555-36.94288592592592h732.0626062222221c20.371986962962964 0 36.945313185185185 16.57332622222222 36.945313185185185 36.94288592592592V773.1042228148146c0 20.369559703703704-16.57332622222222 36.94288592592592-36.945313185185185 36.94288592592592h-732.0613925925926zM266.26669985185185 527.5056355555555h-1.8519988148148145c-17.14858666666667 0-31.04828681481481 13.90091377777778-31.04828681481481 31.04828681481481s13.90091377777778 31.047073185185184 31.04828681481481 31.047073185185184h1.8519988148148145c17.14858666666667 0 31.04828681481481-13.899700148148147 31.04828681481481-31.047073185185184s-13.90091377777778-31.04828681481481-31.04828681481481-31.04828681481481zM750.8617291851851 527.5056355555555H378.6730761481481c-17.147373037037035 0-31.04828681481481 13.90091377777778-31.04828681481481 31.04828681481481s13.90091377777778 31.047073185185184 31.04828681481481 31.047073185185184h372.1874394074074c17.14858666666667 0 31.047073185185184-13.899700148148147 31.047073185185184-31.047073185185184s-13.899700148148147-31.04828681481481-31.045859555555552-31.04828681481481zM750.8617291851851 353.6204231111111H378.6730761481481c-17.147373037037035 0-31.04828681481481 13.90091377777778-31.04828681481481 31.04828681481481s13.90091377777778 31.047073185185184 31.04828681481481 31.047073185185184h372.1874394074074c17.14858666666667 0 31.047073185185184-13.90091377777778 31.047073185185184-31.047073185185184s-13.899700148148147-31.04828681481481-31.045859555555552-31.04828681481481zM750.8617291851851 185.9441398518519H378.6730761481481c-17.147373037037035 0-31.04828681481481 13.90091377777778-31.04828681481481 31.04828681481481s13.90091377777778 31.04828681481481 31.04828681481481 31.04828681481481h372.1874394074074c17.14858666666667 0 31.047073185185184-13.90091377777778 31.047073185185184-31.04828681481481s-13.899700148148147-31.04828681481481-31.045859555555552-31.04828681481481zM266.26669985185185 358.58780918518517h-1.8519988148148145c-17.14858666666667 0-31.04828681481481 13.90091377777778-31.04828681481481 31.04828681481481s13.90091377777778 31.047073185185184 31.04828681481481 31.047073185185184h1.8519988148148145c17.14858666666667 0 31.04828681481481-13.899700148148147 31.04828681481481-31.047073185185184s-13.90091377777778-31.04828681481481-31.04828681481481-31.04828681481481zM266.26669985185185 189.6711964444445h-1.8519988148148145c-17.14858666666667 0-31.04828681481481 13.90091377777778-31.04828681481481 31.04828681481481s13.90091377777778 31.047073185185184 31.04828681481481 31.047073185185184h1.8519988148148145c17.14858666666667 0 31.04828681481481-13.899700148148147 31.04828681481481-31.047073185185184s-13.90091377777778-31.04828681481481-31.04828681481481-31.04828681481481z"  horiz-adv-x="1024" />

    
    <glyph glyph-name="999999" unicode="&#58953;" d="M795.927273 551.563636c-4.654545 0-13.963636 0-18.618182 4.654546-9.309091 9.309091-9.309091 23.272727 0 32.581818l97.745454 97.745455-97.745454 97.745454c-9.309091 9.309091-9.309091 23.272727 0 32.581818s23.272727 9.309091 32.581818 0l111.709091-111.709091c9.309091-9.309091 9.309091-23.272727 0-32.581818l-111.709091-111.709091c0-4.654545-4.654545-9.309091-13.963636-9.309091zM777.309091-58.18181800000002H200.145455c-69.818182 0-130.327273 55.854545-130.327273 130.327273V598.109091c0 69.818182 55.854545 130.327273 130.327273 130.327273h260.654545c13.963636 0 23.272727-9.309091 23.272727-23.272728s-9.309091-23.272727-23.272727-23.272727H200.145455c-46.545455 0-83.781818-37.236364-83.781819-83.781818v-525.963636c0-46.545455 37.236364-83.781818 83.781819-83.781819h577.163636c46.545455 0 83.781818 37.236364 83.781818 83.781819v251.345454c0 13.963636 9.309091 23.272727 23.272727 23.272727s23.272727-9.309091 23.272728-23.272727v-251.345454c-4.654545-74.472727-60.509091-130.327273-130.327273-130.327273zM530.618182 253.672727c-13.963636 0-23.272727 9.309091-23.272727 23.272728-13.963636 153.6 9.309091 265.309091 79.127272 339.781818 60.509091 60.509091 148.945455 93.090909 269.963637 93.090909 13.963636 0 23.272727-9.309091 23.272727-23.272727s-13.963636-23.272727-23.272727-23.272728c-107.054545 0-181.527273-27.927273-232.727273-83.781818-55.854545-65.163636-79.127273-167.563636-65.163636-302.545454 0-13.963636-9.309091-23.272727-27.927273-23.272728 4.654545 0 4.654545 0 0 0z"  horiz-adv-x="1024" />

    
    <glyph glyph-name="999999-copy" unicode="&#59610;" d="M811.10965156 494.16968438v-255.33490313c33.98230125-59.62490906 68.82195375-118.93805344 103.50572344-178.25119781 4.44264-7.63822312 4.44264-16.36762219 0.07794188-24.08378625-4.36469906-7.63822312-12.00292312-12.08086406-20.81026313-12.08086407H657.40988656c-9.04116281-50.19404062-38.26905937-84.64398844-74.97929625-103.50572343-21.97937813-11.30145281-46.60875188-16.91320969-71.23812656-16.91320969s-49.25874844 5.68969687-71.23812562 16.91320969c-36.71023781 18.86173594-65.93813438 53.38962375-74.97929719 103.50572343H130.13863625c-8.80733906 0-16.28968125 4.28675813-20.73232125 11.92498219-4.44264 7.56028219-4.44264 16.28968125-0.15588281 23.92790438l100.77778687 178.48502062V494.09174344c0 27.59113406 5.06616844 55.96167938 14.73085969 83.70869531 9.58675031 27.59113406 23.7720225 54.63668062 42.08817094 79.73370094 19.48526437 26.73378281 44.42640281 51.67492125 72.4072425 71.93959593 25.48672594 18.47203031 53.6234475 33.20289 82.77340218 42.01023 1.24705688 43.88081531 23.84996344 72.17341875 52.61021344 84.87781125 11.45733563 5.06616844 23.92790438 7.56028219 36.476415 7.56028219 12.47056875 0 25.01907937-2.57205469 36.476415-7.63822406 28.83819094-12.7043925 51.51903844-41.23081875 52.84403625-85.42339781 29.38377844-8.96322188 57.44255906-23.69408156 82.77340313-42.24405375 27.98083969-20.42055656 52.68815438-45.51757687 72.17341875-72.64106438 18.00438375-24.94113844 31.87789219-51.75286219 41.30875968-79.11017344 9.4308675-27.43525219 14.41909594-55.57197375 14.41909594-82.85134312zM529.50861219 786.21482531c5.533815-0.62352844 10.98968906-1.40293875 15.66615281-2.18235-2.49411375 10.83380719-9.50880938 18.39408938-18.16026656 22.52496563-4.83234563 2.33823187-10.21027875 3.58528875-15.51027 3.66322969s-10.67792437-0.85735125-15.51027094-3.03970125c-8.57351625-3.81911156-15.66615281-11.30145281-18.47203031-22.83672938 4.28675813 0.70146937 9.27498563 1.32499781 14.41909593 1.87058531 6.15734344 0.62352844 12.62645156 1.091175 18.62791219 1.09117407 5.84557969 0 12.54851063-0.46764656 19.01761781-1.24705688z m72.09547781-761.71795125H420.7808375c7.40440031-25.25290219 23.07055312-43.33522781 42.32199469-54.24697593 14.65291875-8.2617525 31.33230469-12.39262781 48.08963156-12.39262782s33.51465469 4.13087625 48.0896325 12.39262782c19.25144156 10.83380719 34.91759344 28.91613187 42.32199375 54.24697593z m-416.82877312 54.32491688h652.91223562c0.5455875 0 0.93529313 0.23382281 1.24705688 0.5455875s0.5455875 0.77941031 0.54558656 1.32499781-43.25728687 75.29106094-65.93813344 114.65129531c-6.54704906 11.37939469-11.37939469 19.71908719-13.24998 22.91467032-1.16911594 2.02646719-2.02646719 4.20881719-2.64999562 6.46910812s-0.93529313 4.59852281-0.93529313 6.93675375V494.16968438c0 45.59551875-17.61467906 92.20427063-46.9984575 131.95420968-29.38377844 39.82788-70.53665625 72.71900625-117.45717281 90.48956719l-7.48234125 2.49411375c-17.84850188 5.92352063-41.85434719 13.95144937-74.35576875 13.95144937-31.17642281-0.23382281-60.79402406-9.58675031-78.40870313-15.12056531l-0.38970562-0.07794093c-47.69992688-17.38085531-89.63221594-50.11609969-119.56158188-90.17780344-29.851425-39.98376187-47.85580875-87.13810219-47.85580875-133.35714844v-262.50548063c0-2.33823187-0.31176469-4.67646375-0.93529312-6.93675374s-1.48087969-4.44264-2.64999563-6.46910719l-77.62929281-136.63067344c-0.15588188-0.31176469-0.23382281-0.70146937-0.23382281-1.01323406s0.07794094-0.70146937 0.31176375-1.01323313c0.15588188-0.23382281 0.31176469-0.38970562 0.62352844-0.5455875s0.62352844-0.23382281 1.01323406-0.23382375z"  horiz-adv-x="1024" />

    
    <glyph glyph-name="guolv" unicode="&#58956;" d="M875.9 748L629.1 470.6 616 455.8v-435.7l-2.2 1.8-2.4 1.5L408 152.6V455.8l-13.1 14.8L148.1 748h727.8m0 52H148.1c-44.4 0-68.4-52.1-39.5-85.8L356 436v-283.4c0-17.8 9.1-34.4 24.1-43.9l203.4-129.2c9.9-7.9 21.2-11.5 32.2-11.5 26.9 0 52.2 21.2 52.2 52.1V436l247.4 278.2c29 33.7 5 85.8-39.4 85.8z"  horiz-adv-x="1024" />

    
    <glyph glyph-name="saoma" unicode="&#58929;" d="M930.909091-128H698.181818a46.545455 46.545455 0 1 0 0 93.090909h186.181818a46.545455 46.545455 0 0 1 46.545455 46.545455v186.181818a46.545455 46.545455 0 0 0 93.090909 0v-232.727273a93.090909 93.090909 0 0 0-93.090909-93.090909z m46.545454 651.636364a46.545455 46.545455 0 0 0-46.545454 46.545454V756.363636a46.545455 46.545455 0 0 1-46.545455 46.545455h-186.181818a46.545455 46.545455 0 1 0 0 93.090909h232.727273a93.090909 93.090909 0 0 0 93.090909-93.090909v-232.727273a46.545455 46.545455 0 0 0-46.545455-46.545454zM325.818182 802.909091H139.636364a46.545455 46.545455 0 0 1-46.545455-46.545455v-186.181818a46.545455 46.545455 0 0 0-93.090909 0V802.909091a93.090909 93.090909 0 0 0 93.090909 93.090909h232.727273a46.545455 46.545455 0 1 0 0-93.090909zM93.090909 384a23.272727 23.272727 0 0 0 23.272727 23.272727h791.272728a23.272727 23.272727 0 1 0 0-46.545454H116.363636a23.272727 23.272727 0 0 0-23.272727 23.272727z m-46.545454-139.636364a46.545455 46.545455 0 0 0 46.545454-46.545454v-186.181818a46.545455 46.545455 0 0 1 46.545455-46.545455h186.181818a46.545455 46.545455 0 1 0 0-93.090909H93.090909a93.090909 93.090909 0 0 0-93.090909 93.090909V197.818182a46.545455 46.545455 0 0 0 46.545455 46.545454z"  horiz-adv-x="1024" />

    
    <glyph glyph-name="qiehuan" unicode="&#58888;" d="M186.181818 477.090909h609.745455c4.654545 0 9.309091 0 13.963636 4.654546 4.654545 0 4.654545 4.654545 9.309091 4.654545 9.309091 9.309091 18.618182 23.272727 18.618182 37.236364 0 13.963636-4.654545 23.272727-13.963637 32.581818 0 0 0 4.654545-4.654545 4.654545L651.636364 728.436364c-37.236364 37.236364-93.090909 4.654545-93.090909-51.2V570.181818H186.181818c-23.272727 0-46.545455-23.272727-46.545454-46.545454s23.272727-46.545455 46.545454-46.545455zM791.272727 337.454545H181.527273c-4.654545 0-9.309091 0-13.963637-4.654545-4.654545 0-4.654545-4.654545-9.309091-4.654545-9.309091-9.309091-18.618182-23.272727-18.618181-37.236364 0-13.963636 4.654545-23.272727 13.963636-32.581818 0 0 0-4.654545 4.654545-4.654546L325.818182 86.109091c37.236364-37.236364 93.090909-4.654545 93.090909 51.2V244.363636h372.363636c23.272727 0 46.545455 23.272727 46.545455 46.545455s-23.272727 46.545455-46.545455 46.545454z"  horiz-adv-x="1024" />

    
    <glyph glyph-name="iconset0273" unicode="&#59052;" d="M853.333333 576 853.333333 789.333333c0 36.266667-27.733333 64-64 64-36.266667 0-64-27.733333-64-64l0-17.066667-326.4-98.133333L85.333333 640c-23.466667 0-42.666667-19.2-42.666667-42.666667l0-298.666667c0-23.466667 19.2-42.666667 42.666667-42.666667l145.066667-17.066667L298.666667-68.266667l0 0c2.133333-8.533333 10.666667-17.066667 21.333333-17.066667l170.666667 0c12.8 0 21.333333 8.533333 21.333333 21.333333 0 2.133333 0 2.133333 0 4.266667l0 0-59.733333 264.533333L725.333333 123.733333 725.333333 106.666667c0-36.266667 27.733333-64 64-64 36.266667 0 64 27.733333 64 64L853.333333 320c70.4 0 128 57.6 128 128S923.733333 576 853.333333 576zM85.333333 298.666667l0 85.333333 106.666667 0c12.8 0 21.333333 8.533333 21.333333 21.333333s-8.533333 21.333333-21.333333 21.333333L85.333333 426.666667l0 42.666667 64 0c12.8 0 21.333333 8.533333 21.333333 21.333333 0 12.8-8.533333 21.333333-21.333333 21.333333L85.333333 512l0 85.333333 298.666667 34.133333 0-364.8L85.333333 298.666667zM317.866667 42.666667l-42.666667 192 121.6-12.8 8.533333-2.133333 38.4-177.066667L317.866667 42.666667zM454.4 0l8.533333-42.666667-128 0-8.533333 42.666667L454.4 0zM725.333333 168.533333l-298.666667 89.6L426.666667 637.866667l298.666667 89.6L725.333333 168.533333zM810.666667 106.666667c0-12.8-8.533333-21.333333-21.333333-21.333333s-21.333333 8.533333-21.333333 21.333333L768 789.333333c0 12.8 8.533333 21.333333 21.333333 21.333333s21.333333-8.533333 21.333333-21.333333L810.666667 106.666667zM853.333333 362.666667l0 170.666667c46.933333 0 85.333333-38.4 85.333333-85.333333S900.266667 362.666667 853.333333 362.666667z"  horiz-adv-x="1024" />

    
    <glyph glyph-name="xuanze" unicode="&#58991;" d="M508.962-63.727l-123.87 639.504 576.443-293.11-215.027-67.719 134.916-171.485-141.04-107.19-109.177 188.741-122.245-188.741z m242.85 78.491l46.316 37.353-124.814 194.808 149.478 40.745-350.19 169.102 67.702-372.739s74.345 130.916 82.695 130.916l128.813-200.185zM63.333 832.132h768.828v-63.958H63.333zM768.149 768.174h64.012V512.21h-64.012zM63.333 768.174h64.692v-703.895H63.333zM63.333 64.279h317.813v-63.919H63.333z"  horiz-adv-x="1024" />

    
    <glyph glyph-name="banji" unicode="&#58916;" d="M824.636-102.4l-42.23 196.978c0.219 7.98 2.515 27.44 11.7 36.776 3.74 3.74 8.31 5.489 14.434 5.489h0.044c87.303 0 157.067 69.726 157.067 155.457 0 49.917-24.45 97.188-65.412 126.421l-21.454 15.349-6.386-25.604c-28.911-115.641-112.89-210.971-224.71-254.985l-15.505-6.1L709.318-102.4H640.34l-68.233 245.627s-5.27 22.936 5.009 38.853c5.336 8.2 14.127 13.36 27.008 15.808l2.034 0.482c132.727 41.192 221.91 161.863 221.91 300.266 0 174.24-141.78 315.987-316.058 315.987S195.93 672.897 195.93 498.658c0-140.393 90.846-261.566 226.065-301.513 32.651-10.407 29.174-56.607 29.108-57.045L383.68-102.4h-57.32l75.91 245.758-16.14 5.816C269.85 191.11 182.415 288.233 152.257 408.991l-5.664 22.674-23.138-12.791-1.137-1.246c-40.175-29.474-63.969-76.09-63.969-125.328 0-85.753 69.786-155.48 155.536-155.48h0.153c7.59 0 12.138-1.749 15.834-5.487 9.185-9.315 11.503-28.687 11.722-36.755L199.364-102.4h-65.018l57.057 183.728-19.507 3.936C73.767 105.03 2.56 192.116 2.56 292.3c0 83.894 49.84 159.874 126.996 193.567l10.673 4.657 0.11 11.632C142.24 705.191 308.973 870.4 512.01 870.4c203.037 0 369.77-165.209 371.673-368.244l0.11-11.632 10.65-4.657c77.133-33.671 126.996-109.629 126.996-193.523 0-100.206-71.207-187.293-169.314-207.08l-19.508-3.936L889.676-102.4h-65.04zM330.209 456.765l-0.612 2.755-1.443 2.427c-3.084 5.182-4.527 9.555-4.527 13.753 0 15.371 12.51 27.9 27.883 27.9 15.375 0 27.884-12.529 27.884-27.9v-17.95h6.452c17.495-53.919 68.386-91.7 126.165-91.7 57.801 0 108.67 37.781 126.187 91.7h6.452V475.7c0 15.371 12.51 27.9 27.883 27.9 15.397 0 27.884-12.529 27.884-27.9 0-4.176-1.421-8.549-4.527-13.753l-1.421-2.427-0.635-2.755c-19.726-86.234-94.52-146.47-181.823-146.47-87.325 0-162.075 60.236-181.802 146.47z"  horiz-adv-x="1024" />

    
    <glyph glyph-name="mtscover" unicode="&#59609;" d="M258.197333 407.274667l213.546667-108.074667c13.333333-6.677333 29.354667-10.666667 46.698667-10.666667 16.021333 0 32.021333 4.010667 46.72 10.666667l213.525333 108.074667c12.010667 6.677333 20.032 20.010667 20.032 33.365333 0 14.677333-8.021333 26.688-20.032 33.365333l-213.525333 108.096a97.536 97.536 0 0 1-46.72 12.010667c-16 0-32.021333-4.010667-46.698667-10.666667l-213.546667-108.117333c-12.010667-8-20.032-20.010667-20.032-34.688 0-13.354667 8.021333-26.688 20.032-33.365333zM756.010667 339.20000000000005l-209.536-114.773333c-17.344-8-37.376-8-53.397334 0l-212.202666 114.773333c-13.354667 8-30.698667 2.666667-38.698667-10.666667-8-13.376-2.666667-30.677333 10.666667-38.72l213.525333-114.752a114.346667 114.346667 0 0 1 52.053333-12.032c17.344 0 34.730667 4.010667 53.397334 12.032l213.546666 114.752a28.16 28.16 0 0 1 9.344 38.72c-8.021333 13.333333-25.365333 18.666667-38.698666 10.666667zM216.298667 647.2106670000001c0-34.368-27.093333-62.229333-60.48-62.229334-33.365333 0-60.458667 27.861333-60.458667 62.229334 0 34.346667 27.093333 62.208 60.458667 62.208 33.386667 0 60.48-27.84 60.48-62.208z m732.458666-484.16c0-34.368-27.093333-62.208-60.501333-62.208-33.365333 0-60.458667 27.84-60.458667 62.208 0 34.346667 27.093333 62.208 60.458667 62.208 33.408 0 60.501333-27.861333 60.501333-62.208zM338.88 767.061333a33.941333 33.941333 0 1 0-67.882667 0 33.941333 33.941333 0 0 0 67.882667 0zM286.677333 795.3066670000001A476.16 476.16 0 0 0 523.306667 852.693333c126.528-2.901333 244.373333-54.4 331.882666-145.002666 87.488-90.624 134.08-209.429333 131.2-334.570667-1.706667-73.984-21.098667-146.005333-57.685333-214.037333-4.330667-11.050667-15.552-18.581333-28.757333-18.581334-18.048 0.384-31.744 14.72-31.381334 31.978667 0.085333 2.368 0.576 4.245333 0.96 5.632l0.042667 2.688 1.536 2.922667c31.978667 56.512 48.981333 119.701333 50.538667 187.84 2.474667 107.904-37.717333 210.325333-113.152 288.384-75.52 78.122667-177.365333 122.517333-286.784 125.034666a409.429333 409.429333 0 0 1-200.128-47.381333m-151.274667-136.490667a397.290667 397.290667 0 0 1-67.072-211.818666c-2.474667-107.946667 37.717333-210.346667 113.152-288.426667 75.52-78.101333 177.365333-122.496 286.762667-124.992 86.826667-2.261333 170.624 23.701333 244.117333 74.154667 5.056 5.482667 12.522667 8.469333 21.205333 8.469333 18.048-0.384 31.744-14.72 31.381334-31.978667a30.122667 30.122667 0 0 0-8.789334-20.821333c-83.136-59.562667-178.986667-90.538667-278.229333-90.538667-3.690667 0-7.381333 0.042667-11.093333 0.128-261.824 6.037333-470.037333 221.184-464.106667 479.616 2.026667 88.149333 29.333333 170.474667 74.88 240.32"  horiz-adv-x="1024" />

    
    <glyph glyph-name="xingbie" unicode="&#58928;" d="M320 341.333333a234.666667 234.666667 0 1 0 0 469.333334 234.666667 234.666667 0 0 0 0-469.333334z m0 42.666667a192 192 0 1 1 0 384 192 192 0 0 1 0-384zM704-42.666667a234.666667 234.666667 0 1 0 0 469.333334 234.666667 234.666667 0 0 0 0-469.333334z m0 42.666667a192 192 0 1 1 0 384 192 192 0 0 1 0-384zM682.666667 725.333333h42.666666v-341.333333h-42.666666zM597.333333 640h213.333334v-42.666667h-213.333334zM298.666667 384h42.666666v-341.333333H298.666667zM318.933333 72.106667l75.434667 75.392 30.165333-30.165334-105.6-105.6L213.333333 117.333333l30.165334 30.165334z"  horiz-adv-x="1024" />

    
    <glyph glyph-name="touxiang" unicode="&#58925;" d="M908.548 690.339 582.454 875.521C560.495 888.021 536.037 894.215 511.578 894.215c-24.458 0-48.917-6.194-70.875-18.693L114.591 690.339c-44.496-25.298-71.976-72.312-71.976-123.281l0-367.902c0-50.932 27.48-97.982 71.976-123.242l326.112-185.223C462.661-121.77 487.12-128 511.578-128c24.459 0 48.917 6.23 70.876 18.691l326.094 185.223c44.514 25.26 71.975 72.311 71.975 123.242L980.523 567.058C980.522 618.027 953.062 665.041 908.548 690.339zM548.257-49.83c-11.155-6.307-23.843-9.664-36.679-9.664-12.854 0-25.541 3.357-36.679 9.664L235.427 86.174c15.597 8.58 31.623 14.551 45.26 15.709 16.53 1.418 39.645 7.162 64.123 13.246 9.179 2.313 18.414 4.588 27.145 6.604 51.547 11.902 68.749 22.723 77.199 29.85 7.93 6.68 12.388 16.529 12.202 26.865-0.504 22.5-8.209 44.402-22.425 63.619-2.258 3.955-5.317 7.424-8.993 10.223-46.827 35.635-74.793 97.236-74.793 164.734 0 106.64 70.503 193.393 157.162 193.393 86.64 0 157.123-86.64 157.123-193.204 0-67.35-27.966-128.803-74.793-164.438-2.238-1.68-4.328-3.768-6.101-5.969-16.306-20.41-24.794-42.76-25.297-66.379-0.188-10.262 4.216-20.039 12.014-26.717 7.594-6.455 23.173-15.484 76.66-27.908 32.237-7.539 69.475-14.031 90.52-15.822 17.816-1.566 37.76-8.357 55.503-17.982L548.257-49.83zM911.607 199.156c0-26.268-14.273-50.744-37.257-63.805l-9.981-5.672c-0.337 0.299-0.466 0.709-0.803 0.971-32.312 26.342-75.37 44.104-115.184 47.537-17.574 1.529-52.275 7.686-80.745 14.326-11.978 2.762-21.249 5.225-28.282 7.24 0.355 0.559 0.728 1.117 1.138 1.715 61.361 48.844 97.87 129.027 97.87 215.743 0 144.324-101.415 261.709-226.057 261.709-124.68 0-226.077-117.46-226.077-261.898 0-86.49 36.193-166.525 97.087-215.406 1.212-1.641 2.294-3.283 3.283-5-7.239-2.313-17.071-5.111-30.242-8.133-9.123-2.127-18.73-4.516-28.264-6.902-19.832-4.926-42.293-10.484-53.32-11.455-34.477-2.947-73.281-20.297-105.8-46.193l-20.186 11.418c-22.965 13.061-37.256 37.537-37.256 63.805L111.531 567.058c0 26.306 14.291 50.745 37.256 63.804l326.112 185.22c11.138 6.306 23.824 9.664 36.679 9.664 12.836 0 25.523-3.357 36.679-9.664l326.094-185.22c22.983-13.06 37.257-37.499 37.257-63.804L911.608 199.156z"  horiz-adv-x="1024" />

    
    <glyph glyph-name="xingmingyonghumingnicheng" unicode="&#58915;" d="M652.3 333.3C741.6 382.7 802 477.8 802 587c0 160.2-129.8 290-290 290-160.2 0-290-129.8-290-290 0-109.2 60.4-204.3 149.7-253.7C184 273.8 48 98.3 48-109l58 0c0 224.2 181.8 406 406 406 224.2 0 406-181.8 406-406l58 0C976 98.3 840 273.8 652.3 333.3zM280 587c0 128.1 103.9 232 232 232 128.1 0 232-103.9 232-232 0-128.1-103.9-232-232-232C383.9 355 280 458.9 280 587z"  horiz-adv-x="1024" />

    
    <glyph glyph-name="icon-person" unicode="&#58887;" d="M646.783 310.032c-2.816 1.693-6.117 12.116-0.163 33.751 63.535 69.094 102.756 168.046 102.756 260.532 0 147.079-101.858 250.633-241.775 250.633-139.605 0-237.121-102.716-237.121-249.799 0-93.778 39.62-193.466 103.781-262.179 6.439-21.596-1.956-29.345-7.266-31.768-63.636-23.018-302.475-107.166-302.475-223.561v-152.346h893.965v172.036c-30.934 106.706-256.895 184.676-311.703 202.701v0zM128.682-0.543v83.522c0 43.991 132.965 116.923 261.836 163.519 5.303 1.963 32.556 13.284 46.866 44.637 7.6 16.644 13.593 44.42-0.879 82.433l-2.549 6.683-5.031 5.095c-54.45 55.642-89.621 141.898-89.621 219.806 0 133.562 90.684 180.976 168.297 180.976 77.861 0 173.602-48.475 173.602-182.042 0-77.135-35.192-163.227-89.64-219.305 0 0-23.082-32.541-22.765-55.952 0.208-15.41 8.855-34.797 15.642-48.145 12.785-25.207 33.775-33.622 39.724-35.584 119.409-39.517 256.668-92.235 270.159-138.707v-106.933l-765.642-0.003zM128.682-0.543z"  horiz-adv-x="1024" />

    
    <glyph glyph-name="youxiang" unicode="&#58945;" d="M901.6832 682.3168L122.3168 682.3168c-38.8352 0-70.4-31.5648-70.4-70.4l0-458.2656c0-38.8352 31.5648-70.4 70.4-70.4l779.3408 0c38.8352 0 70.4 31.5648 70.4 70.4L972.0576 611.9168C972.0832 650.752 940.4928 682.3168 901.6832 682.3168zM933.6832 611.9168l0-458.2656c0-6.8096-2.6112-12.7744-6.2464-17.9712l-258.0224 240.512 262.4512 244.6336C932.736 617.9328 933.6832 615.0656 933.6832 611.9168zM90.3168 153.6512L90.3168 611.9168c0 3.1488 0.9472 6.016 1.792 8.8832l262.4768-244.6336L96.5632 135.68C92.928 140.8768 90.3168 146.8416 90.3168 153.6512zM512 281.9584L123.648 643.9168 900.352 643.9168 512 281.9584zM382.7456 349.9264L512 229.4528l129.2544 120.4736 244.8896-228.2752L137.856 121.6512 382.7456 349.9264z"  horiz-adv-x="1024" />

    
    <glyph glyph-name="phone_icon" unicode="&#58975;" d="M762 884h-500c-46.001-0.051-83.279-37.329-83.33-83.325l-0-833.345c0.051-46.001 37.329-83.279 83.325-83.33l500.005-0c46.001 0.051 83.279 37.329 83.33 83.325l0 833.345c-0.051 46.001-37.329 83.279-83.325 83.33zM234.22 800.67c0.017 15.334 12.446 27.759 27.779 27.77l500.001 0c15.338-0.011 27.769-12.442 27.78-27.779l0-638.881h-555.56zM789.78-32.67c-0.017-15.334-12.446-27.759-27.779-27.77l-500.001-0c-15.338 0.011-27.769 12.442-27.78 27.779l-0 138.881h555.56zM456.44 22.89c0-0 0-0 0-0 0-30.685 24.875-55.56 55.56-55.56 30.685 0 55.56 24.875 55.56 55.56 0 0 0 0 0 0 0 30.685-24.875 55.56-55.56 55.56-30.685 0-55.56-24.875-55.56-55.56z"  horiz-adv-x="1024" />

    
    <glyph glyph-name="zuo" unicode="&#58927;" d="M693.44 119.68a32 32 0 0 0-42.88-47.36l-320 288a32 32 0 0 0 0 47.36l320 288a32 32 0 1 0 42.88-47.36L399.68 384z"  horiz-adv-x="1024" />

    
    <glyph glyph-name="you" unicode="&#58940;" d="M320 665.2l41.4 38.8L704 384 361.4 64 320 102.6 621 384z"  horiz-adv-x="1024" />

    
    <glyph glyph-name="jiaoxuejiaoyu" unicode="&#58919;" d="M927 800H95c-17.673 0-32-14.327-32-32s14.327-32 32-32h33v-480.5c0-52.107 42.393-94.5 94.5-94.5h214.602L297.551 21.449c-12.398-12.398-12.398-32.5 0-44.898s32.5-12.398 44.898 0L512 146.102l169.551-169.551c6.199-6.199 14.324-9.299 22.449-9.299s16.25 3.1 22.449 9.299c12.398 12.398 12.398 32.5 0 44.898L586.898 161H801.5c52.107 0 94.5 42.393 94.5 94.5V736h31c17.673 0 32 14.327 32 32s-14.327 32-32 32z m-94-544.5c0-17.369-14.131-31.5-31.5-31.5h-579c-17.369 0-31.5 14.131-31.5 31.5V736h642v-480.5zM351 576h320c17.673 0 32 14.327 32 32s-14.327 32-32 32H351c-17.673 0-32-14.327-32-32s14.327-32 32-32zM351 449h320c17.673 0 32 14.327 32 32s-14.327 32-32 32H351c-17.673 0-32-14.327-32-32s14.327-32 32-32zM351 320h193c17.673 0 32 14.326 32 32s-14.327 32-32 32H351c-17.673 0-32-14.326-32-32s14.327-32 32-32z"  horiz-adv-x="1024" />

    
    <glyph glyph-name="xiaoxi" unicode="&#59180;" d="M832 768H192c-70.656 0-128-57.344-128-128v-384c0-70.656 57.344-128 128-128h127.808v-65.408c0-24 13.44-45.568 34.944-56.192 8.896-4.288 18.368-6.464 27.776-6.464 13.504 0 26.88 4.416 38.08 12.992L570.048 128H832c70.656 0 128 57.344 128 128V640c0 70.656-57.344 128-128 128z m64-512c0-35.392-28.608-64-64-64l-272.576 0.064c-7.04 0-13.888-2.304-19.456-6.592L383.744 62.528v97.536c0 17.664-14.336 31.936-31.936 31.936H192c-35.392 0-64 28.608-64 64V640c0 35.392 28.608 64 64 64h640c35.392 0 64-28.608 64-64v-384zM320 512c-35.392 0-64-28.608-64-64 0-35.392 28.608-64 64-64 35.392 0 64 28.608 64 64 0 35.392-28.608 64-64 64z m192 0c-35.392 0-64-28.608-64-64 0-35.392 28.608-64 64-64 35.392 0 64 28.608 64 64 0 35.392-28.608 64-64 64z m192 0c-35.392 0-64-28.608-64-64 0-35.392 28.608-64 64-64 35.392 0 64 28.608 64 64 0 35.392-28.608 64-64 64z"  horiz-adv-x="1024" />

    
    <glyph glyph-name="xiugai" unicode="&#58960;" d="M930.841 688.519l-113.544 113.561c-17.050 17.070-39.718 26.471-63.829 26.471-24.103 0-46.771-9.394-63.836-26.459l-533.75-535.41-87.743-327.28 329.499 88.257 533.163 533.201c17.107 17.084 26.527 39.76 26.527 63.848-0.001 24.091-9.408 46.754-26.487 63.81zM223.285 34.851l-59.694 59.69 29.093 108.405 139.068-139.067-108.467-29.028zM382.804 86.432l-166.831 166.83 392.68 394.19 167.583-167.549-393.433-393.47zM894 597.685l-52.15-52.168-167.662 167.556 52.303 52.237c6.804 6.834 16.632 10.753 26.961 10.753 10.342 0 20.197-3.923 27.038-10.763l113.547-113.584c7.248-7.248 11.239-16.84 11.239-27.006 0-10.171-4.003-19.765-11.277-27.024z"  horiz-adv-x="1024" />

    
    <glyph glyph-name="yijianfankui" unicode="&#59391;" d="M1002.602667 478.912c-11.818667 0-21.354667-9.557333-21.354667-21.354667l0-416.981333c0-69.376-56.448-125.802667-125.824-125.802667L168.554667-85.226667c-69.376 0-125.824 56.448-125.824 125.802667L42.730667 727.445333c0 69.354667 56.448 125.802667 125.824 125.802667l416.981333 0c11.861333 0 21.397333 9.557333 21.397333 21.354667 0 11.797333-9.536 21.354667-21.397333 21.354667L168.554667 895.957333C75.605333 895.957333 0 820.352 0 727.424L0 40.533333C0-52.373333 75.605333-128 168.554667-128L855.466667-128c92.906667 0 168.533333 75.626667 168.512 168.533333L1023.978667 457.557333C1023.978667 469.354667 1014.421333 478.912 1002.602667 478.912zM317.333333 347.2c-0.597333-0.832-1.429333-1.429333-1.92-2.368L174.165333 75.008c-4.330667-8.298667-2.773333-18.346667 3.818667-25.024 4.117333-4.096 9.6-6.250667 15.125333-6.250667 3.370667 0 6.784 0.789333 9.92 2.410667l269.845333 141.184c1.173333 0.618667 1.962667 1.621333 2.965333 2.410667 0.704 0.533333 1.557333 0.832 2.197333 1.472l471.765333 471.744c0.106667 0.085333 0.234667 0.106667 0.32 0.213333s0.128 0.213333 0.213333 0.32l45.824 45.824C1014.101333 727.253333 1024 751.125333 1024 776.469333c0 25.365333-9.898667 49.216-27.882667 67.157333l-24.469333 24.533333C953.728 886.122667 929.834667 896 904.490667 896c-25.344 0-49.237333-9.877333-67.157333-27.84L319.232 350.037333C318.4 349.226667 317.994667 348.117333 317.333333 347.2zM339.797333 299.264l87.530667-87.530667-183.637333-96.085333L339.797333 299.264zM867.584 837.930667c19.754667 19.754667 54.122667 19.754667 73.877333 0l24.490667-24.512c9.856-9.877333 15.317333-22.997333 15.317333-36.949333s-5.461333-27.050667-15.317333-36.906667l-30.997333-30.997333-98.368 98.368L867.584 837.930667zM806.378667 776.725333l98.368-98.368L462.933333 236.544l-98.389333 98.368L806.378667 776.725333z"  horiz-adv-x="1024" />

    
    <glyph glyph-name="iconset0103" unicode="&#58882;" d="M584.533333 196.266667c-12.8 0-21.333333 0-25.6 4.266667-4.266667 4.266667-8.533333 12.8-8.533333 21.333333 0 4.266667 0 12.8 4.266667 21.333333 0 8.533333 4.266667 17.066667 4.266667 21.333333l25.6 85.333333c4.266667 8.533333 4.266667 17.066667 4.266667 25.6 0 8.533333 0 17.066667 0 21.333333 0 17.066667-8.533333 34.133333-21.333333 42.666667-12.8 12.8-29.866667 17.066667-55.466667 17.066667-12.8 0-25.6-4.266667-42.666667-8.533333-12.8-4.266667-29.866667-8.533333-46.933333-17.066667l-8.533333-25.6c4.266667 0 8.533333 4.266667 17.066667 4.266667 8.533333 0 12.8 4.266667 21.333333 4.266667 12.8 0 21.333333-4.266667 25.6-4.266667 4.266667-4.266667 8.533333-12.8 8.533333-21.333333 0-4.266667 0-12.8-4.266667-21.333333 0-8.533333-4.266667-17.066667-4.266667-21.333333l-25.6-85.333333c-4.266667-8.533333-4.266667-17.066667-4.266667-25.6 0-8.533333 0-12.8 0-21.333333 0-17.066667 8.533333-29.866667 21.333333-42.666667 12.8-12.8 29.866667-17.066667 55.466667-17.066667 17.066667 0 29.866667 0 42.666667 4.266667 12.8 4.266667 25.6 8.533333 46.933333 17.066667l8.533333 25.6c-4.266667 0-8.533333-4.266667-17.066667-4.266667C597.333333 196.266667 588.8 196.266667 584.533333 196.266667zM524.8 840.533333C268.8 840.533333 64 635.733333 64 384c0-251.733333 204.8-456.533333 456.533333-456.533333C776.533333-72.533333 981.333333 132.266667 981.333333 384 981.333333 635.733333 776.533333 840.533333 524.8 840.533333zM524.8-34.133333c-230.4 0-418.133333 187.733333-418.133333 418.133333s187.733333 418.133333 418.133333 418.133333c230.4 0 418.133333-187.733333 418.133333-418.133333S755.2-34.133333 524.8-34.133333zM567.466667 614.4c-17.066667 0-29.866667-4.266667-42.666667-17.066667C516.266667 588.8 512 576 512 558.933333c0-12.8 4.266667-25.6 17.066667-38.4 12.8-8.533333 25.6-17.066667 42.666667-17.066667 17.066667 0 29.866667 4.266667 42.666667 17.066667s17.066667 21.333333 17.066667 38.4c0 12.8-4.266667 25.6-17.066667 38.4S584.533333 614.4 567.466667 614.4z"  horiz-adv-x="1024" />

    
    <glyph glyph-name="gerenxinxi" unicode="&#58924;" d="M512.195896 640.304974C579.067548 640.304974 633.450852 585.92167 633.450852 519.072278 633.450852 452.200626 579.067548 397.795061 512.195896 397.795061 445.346504 397.795061 390.9632 452.200626 390.9632 519.072278 390.9632 585.92167 445.346504 640.304974 512.195896 640.304974M226.255026 150.610365C223.361113 132.400974 235.8272 115.282365 254.01433 112.410713 272.335026 109.5168 289.34233 121.982887 292.213983 140.170017 309.532939 249.760278 402.583374 329.298365 513.487026 329.298365 624.390678 329.298365 717.463374 249.760278 734.76007 140.170017 737.34233 123.741496 751.544765 112.010017 767.706157 112.010017 769.442504 112.010017 771.178852 112.121322 772.959722 112.410713 791.146852 115.282365 803.612939 132.400974 800.719026 150.610365 784.668939 252.253496 718.264765 333.750539 629.199026 372.106017 672.429635 406.588104 700.233461 459.591235 700.233461 519.072278 700.233461 622.741148 615.887026 707.087583 512.195896 707.087583 408.527026 707.087583 324.180591 622.741148 324.180591 519.072278 324.180591 459.190539 352.407374 405.875757 396.127722 371.41593 307.885635 332.771061 242.21607 251.630191 226.255026 150.610365ZM512 896C229.665391 896 0 666.334609 0 384 0 279.106783 31.610435 178.176 91.425391 92.115478 101.954783 76.955826 122.746435 73.216 137.906087 83.767652 153.043478 94.274783 156.783304 115.088696 146.253913 130.248348 94.252522 205.04487 66.782609 292.797217 66.782609 384 66.782609 629.49287 266.50713 829.217391 512 829.217391 757.49287 829.217391 957.217391 629.49287 957.217391 384 957.217391 138.50713 757.49287-61.217391 512-61.217391 420.797217-61.217391 333.04487-33.747478 258.248348 18.253913 243.044174 28.805565 222.252522 25.065739 211.767652 9.906087 201.238261-5.231304 204.978087-26.045217 220.115478-36.574609 306.176-96.389565 407.106783-128 512-128 794.334609-128 1024 101.665391 1024 384 1024 666.334609 794.334609 896 512 896Z"  horiz-adv-x="1024" />

    
    <glyph glyph-name="banjiguanli" unicode="&#58897;" d="M427.84 348.48a193.6 193.6 0 1 1-193.6 193.6 193.92 193.92 0 0 1 193.6-193.6z m0 323.52a129.6 129.6 0 1 0-129.6-129.6A129.92 129.92 0 0 0 427.84 672zM822.72-41.28a32 32 0 0 1-45.44 0 32 32 0 0 1-6.72-10.56A32 32 0 0 1 768-64a32 32 0 1 1 64 0 32 32 0 0 1-2.56 12.16 32 32 0 0 1-6.72 10.56zM672-32h-128a32 32 0 0 1 0-64h128a32 32 0 0 1 0 64zM776.96 34.24h2.24a32 32 0 0 1 4.8 3.52l3.84 3.2a32 32 0 0 1 3.84 5.76 20.16 20.16 0 0 1 4.16 10.88 32 32 0 0 1 0 5.76 32 32 0 0 1 0 6.4 30.08 30.08 0 0 1 0 4.8 394.56 394.56 0 0 1-367.36 256A400.64 400.64 0 0 1 32-64a32 32 0 0 1 32-32h352a32 32 0 0 1 0 64H98.56a335.04 335.04 0 0 0 329.28 299.84A330.88 330.88 0 0 0 736 52.48v-2.56a32 32 0 0 1 15.04-14.4h1.6a28.48 28.48 0 0 1 23.04 0zM565.76 771.2a110.08 110.08 0 1 0 123.84-179.84 32 32 0 1 1 28.8-57.28 174.08 174.08 0 1 1-196.16 284.16 32 32 0 1 1 43.52-47.04zM675.2 506.56a32 32 0 0 1-6.4-64 293.44 293.44 0 0 0 256-256H832a32 32 0 0 1 0-64h128a32 32 0 0 1 32 32 359.36 359.36 0 0 1-316.8 352z"  horiz-adv-x="1024" />

    
    <glyph glyph-name="mima" unicode="&#59020;" d="M205.4 384.8c-17.6 0-32 14.3-32 31.9V557.4c0 45.7 9 90 26.6 131.8 17.1 40.3 41.5 76.5 72.5 107.6s67.3 55.5 107.6 72.5C422 887 466.3 896 512 896s90-9 131.8-26.6c40.3-17.1 76.5-41.5 107.6-72.5s55.5-67.3 72.5-107.6c17.7-41.8 26.6-86.1 26.6-131.8 0-17.7-14.3-32-32-32s-32 14.3-32 32C786.6 708.8 663.4 832 512 832S237.4 708.8 237.4 557.4v-140.7c0-17.6-14.3-31.9-32-31.9 0.1 0 0 0 0 0zM808 383.8c14.8 0 28.9-5.9 39.5-16.5 10.6-10.6 16.5-24.7 16.5-39.5V-8c0-14.8-5.9-28.9-16.5-39.5-10.7-10.6-24.7-16.5-39.5-16.5H218c-14.8 0-28.9 5.9-39.5 16.5-10.6 10.6-16.5 24.7-16.5 39.5V327.8c0 14.8 5.9 28.9 16.5 39.5 10.6 10.6 24.7 16.5 39.5 16.5h590m0 64H218c-66 0-120-54-120-120V-8c0-66 54-120 120-120h590c66 0 120 54 120 120V327.8c0 66-54 120-120 120z"  horiz-adv-x="1024" />

    
    <glyph glyph-name="dibudaohanglan-" unicode="&#58926;" d="M989.090909-11.636363999999958H954.181818V525.963636c0 30.254545-25.6 55.854545-58.181818 55.854546h-132.654545v39.563636c0 6.981818 0 25.6-102.4 121.018182-104.727273 97.745455-128 97.745455-137.309091 97.745455-9.309091 0-32.581818 0-141.963637-95.418182-107.054545-95.418182-107.054545-111.709091-107.054545-121.018182v-39.563636H146.618182c-32.581818 0-58.181818-25.6-58.181818-55.854546V-11.636363999999958H37.236364c-13.963636 0-25.6-11.636364-25.6-25.6 0-13.963636 11.636364-25.6 25.6-25.6l954.181818 2.327273c13.963636 0 25.6 11.636364 25.6 25.6s-13.963636 23.272727-27.927273 23.272727z m-95.418182 542.254546c4.654545 0 6.981818-2.327273 6.981818-4.654546V-11.636363999999958h-139.636363V530.6181819999999h132.654545zM414.254545 705.163636c58.181818 51.2 93.090909 76.8 107.054546 81.454546 32.581818-13.963636 169.890909-139.636364 190.836364-172.218182V-11.636363999999958h-44.218182v179.2c0 55.854545-46.545455 100.072727-104.727273 100.072728h-86.109091C418.909091 267.63636399999996 372.363636 223.418182 372.363636 167.56363599999997V-11.636363999999958h-51.2V614.4c9.309091 11.636364 44.218182 48.872727 93.090909 90.763636zM616.727273-11.636363999999958h-195.490909v181.527273c0 27.927273 25.6 48.872727 55.854545 48.872727h86.109091c30.254545 0 55.854545-20.945455 55.854545-48.872727V-11.636363999999958zM137.309091 525.963636c0 2.327273 2.327273 4.654545 6.981818 4.654546h125.672727V-11.636363999999958H134.981818V525.963636zM397.963636 432.872727h225.745455c13.963636 0 25.6 11.636364 25.6 25.6 0 13.963636-11.636364 25.6-25.6 25.6h-225.745455c-13.963636 0-25.6-11.636364-25.6-25.6 2.327273-13.963636 11.636364-25.6 25.6-25.6zM397.963636 337.45454500000005h225.745455c13.963636 0 25.6 11.636364 25.6 25.6s-11.636364 25.6-25.6 25.6h-225.745455c-13.963636 0-25.6-11.636364-25.6-25.6s11.636364-25.6 25.6-25.6zM397.963636 530.6181819999999h225.745455c13.963636 0 25.6 11.636364 25.6 25.6s-11.636364 25.6-25.6 25.6h-225.745455c-13.963636 0-25.6-11.636364-25.6-25.6s11.636364-25.6 25.6-25.6z"  horiz-adv-x="1024" />

    
    <glyph glyph-name="jiaoxue" unicode="&#58965;" d="M334.933333 678.4c-12.8 0-23.466667 6.4-27.733333 17.066667L249.6 810.666667c-8.533333 14.933333-2.133333 34.133333 14.933333 42.666666 14.933333 8.533333 34.133333 2.133333 42.666667-14.933333l57.6-115.2c8.533333-14.933333 2.133333-34.133333-14.933333-42.666667-4.266667-2.133333-8.533333-2.133333-14.933334-2.133333zM708.266667 686.933333c-4.266667 0-10.666667 2.133333-14.933334 4.266667-14.933333 8.533333-21.333333 27.733333-14.933333 42.666667l57.6 115.2c8.533333 14.933333 27.733333 21.333333 42.666667 14.933333 14.933333-8.533333 21.333333-27.733333 14.933333-42.666667L736 704c-4.266667-10.666667-17.066667-17.066667-27.733333-17.066667zM955.733333 678.4H83.2c-17.066667 0-32 14.933333-32 32s14.933333 32 32 32h872.533333c17.066667 0 32-14.933333 32-32s-12.8-32-32-32zM763.733333 149.333333H288c-61.866667 0-113.066667 51.2-113.066667 113.066667V695.466667c0 17.066667 14.933333 32 32 32s32-14.933333 32-32v-433.066667c0-27.733333 21.333333-49.066667 49.066667-49.066667h477.866667c27.733333 0 49.066667 21.333333 49.066666 49.066667v448c0 17.066667 14.933333 32 32 32s32-14.933333 32-32v-448c0-61.866667-51.2-113.066667-115.2-113.066667zM836.266667 548.266667H221.866667c-17.066667 0-32 14.933333-32 32s14.933333 32 32 32h614.4c17.066667 0 32-14.933333 32-32s-14.933333-32-32-32zM497.066667 313.6c-17.066667 0-36.266667 8.533333-46.933334 21.333333l-34.133333 38.4c-10.666667 12.8-10.666667 34.133333 2.133333 44.8s34.133333 10.666667 44.8-2.133333l34.133334-38.4 153.6 87.466667c14.933333 8.533333 34.133333 4.266667 42.666666-12.8 8.533333-14.933333 4.266667-34.133333-12.8-42.666667L526.933333 320c-10.666667-4.266667-21.333333-6.4-29.866666-6.4zM307.2-81.066667c-4.266667 0-8.533333 0-12.8 2.133334-17.066667 6.4-23.466667 25.6-17.066667 42.666666l89.6 224c6.4 17.066667 25.6 23.466667 42.666667 17.066667 17.066667-6.4 23.466667-25.6 17.066667-42.666667l-89.6-224c-4.266667-10.666667-17.066667-19.2-29.866667-19.2zM725.333333-98.133333c-12.8 0-25.6 8.533333-29.866666 19.2l-89.6 224c-6.4 17.066667 2.133333 34.133333 17.066666 42.666666 17.066667 6.4 34.133333-2.133333 42.666667-17.066666l89.6-224c6.4-17.066667-2.133333-34.133333-17.066667-42.666667-4.266667-2.133333-8.533333-2.133333-12.8-2.133333z"  horiz-adv-x="1024" />

    
    <glyph glyph-name="tongji" unicode="&#59080;" d="M979.911111-128H43.804444c-24.064 0-43.576889 19.114667-43.576888 42.666667v938.666666C0.227556 876.885333 19.740444 896 43.804444 896c24.035556 0 43.52-19.114667 43.52-42.666667V-42.666667h892.586667c24.035556 0 43.52-19.114667 43.52-42.666666s-19.484444-42.666667-43.52-42.666667z m-609.848889 275.2a43.747556 43.747556 0 0 0-34.844444 19.626667L173.169778 413.013333a42.552889 42.552889 0 0 0-1.649778 43.292445c7.395556 13.681778 21.674667 22.471111 37.461333 23.04 15.786667 0.568889 30.72-7.139556 39.111111-20.252445l107.576889-165.546666 46.193778 167.253333a42.951111 42.951111 0 0 0 23.950222 27.306667l189.041778 85.333333a44.003556 44.003556 0 0 0 56.206222-18.773333l75.776-131.413334L895.431111 823.466667a43.292444 43.292444 0 0 0 33.28 28.558222 44.088889 44.088889 0 0 0 41.642667-14.734222c10.097778-11.975111 12.771556-28.387556 6.968889-42.837334l-180.792889-487.68c-5.888-15.616-20.508444-26.453333-37.461334-27.733333a43.804444 43.804444 0 0 0-41.386666 21.333333l-102.798222 178.346667-134.599112-60.16-67.953777-240.213333c-4.579556-16.128-18.375111-28.16-35.271111-30.72l-6.968889-0.426667z"  horiz-adv-x="1024" />

    


  </font>
</defs>
</svg>
