<?xml version="1.0" standalone="no"?><!DOCTYPE svg PUBLIC "-//W3C//DTD SVG 1.1//EN" "http://www.w3.org/Graphics/SVG/1.1/DTD/svg11.dtd"><svg t="1576055239550" class="icon" viewBox="0 0 1024 1024" version="1.1" xmlns="http://www.w3.org/2000/svg" p-id="5229" xmlns:xlink="http://www.w3.org/1999/xlink" width="200" height="200"><defs><style type="text/css"></style></defs><path d="M186.181818 418.909091h609.745455c4.654545 0 9.309091 0 13.963636-4.654546 4.654545 0 4.654545-4.654545 9.309091-4.654545 9.309091-9.309091 18.618182-23.272727 18.618182-37.236364 0-13.963636-4.654545-23.272727-13.963637-32.581818 0 0 0-4.654545-4.654545-4.654545L651.636364 167.563636c-37.236364-37.236364-93.090909-4.654545-93.090909 51.2V325.818182H186.181818c-23.272727 0-46.545455 23.272727-46.545454 46.545454s23.272727 46.545455 46.545454 46.545455zM791.272727 558.545455H181.527273c-4.654545 0-9.309091 0-13.963637 4.654545-4.654545 0-4.654545 4.654545-9.309091 4.654545-9.309091 9.309091-18.618182 23.272727-18.618181 37.236364 0 13.963636 4.654545 23.272727 13.963636 32.581818 0 0 0 4.654545 4.654545 4.654546L325.818182 809.890909c37.236364 37.236364 93.090909 4.654545 93.090909-51.2V651.636364h372.363636c23.272727 0 46.545455-23.272727 46.545455-46.545455s-23.272727-46.545455-46.545455-46.545454z" p-id="5230"></path></svg>