<?xml version="1.0" standalone="no"?><!DOCTYPE svg PUBLIC "-//W3C//DTD SVG 1.1//EN" "http://www.w3.org/Graphics/SVG/1.1/DTD/svg11.dtd"><svg t="1584527350409" class="icon" viewBox="0 0 1100 1024" version="1.1" xmlns="http://www.w3.org/2000/svg" p-id="2289" xmlns:xlink="http://www.w3.org/1999/xlink" width="214.84375" height="200"><defs><style type="text/css"></style></defs><path d="M192 38.4h716.8c84.48 0 153.6 69.12 153.6 153.6v537.6c0 84.48-69.12 153.6-153.6 153.6H309.76c-151.04 0-271.36 102.4-271.36 102.4v-793.6c0-84.48 69.12-153.6 153.6-153.6z" fill="#FFFFFF" p-id="2290"></path><path d="M38.4 1024c-5.12 0-10.24 0-15.36-2.56-12.8-5.12-23.04-20.48-23.04-35.84v-793.6C0 87.04 87.04 0 192 0h716.8c104.96 0 192 87.04 192 192v537.6c0 104.96-87.04 192-192 192H309.76C174.08 921.6 64 1013.76 64 1013.76c-7.68 7.68-17.92 10.24-25.6 10.24zM192 76.8C128 76.8 76.8 128 76.8 192v721.92c53.76-30.72 138.24-69.12 232.96-69.12H908.8c64 0 115.2-51.2 115.2-115.2v-537.6C1024 128 972.8 76.8 908.8 76.8H192z" fill="#333333" p-id="2291"></path><path d="M750.08 558.08c-99.84 99.84-261.12 99.84-360.96 0" fill="#FFFFFF" p-id="2292"></path><path d="M570.88 670.72c-74.24 0-151.04-28.16-207.36-87.04-15.36-15.36-15.36-38.4 0-53.76 15.36-15.36 38.4-15.36 53.76-2.56l2.56 2.56c84.48 84.48 222.72 84.48 307.2 0 15.36-15.36 38.4-15.36 53.76 0 15.36 15.36 15.36 38.4 0 53.76-61.44 58.88-135.68 87.04-209.92 87.04z" fill="#333333" p-id="2293"></path></svg>